<?xml version='1.0' encoding='UTF-8'?>
<svg x="0px" y="0px" viewBox="0 0 10 10" version="1.1" xmlns="http://www.w3.org/2000/svg" xmlns:xlink="http://www.w3.org/1999/xlink" xml:space="preserve" id="Layer_1" style="enable-background:new 0 0 10 10" tag="Element1">
  <path d="M4.9, 1C5.8, 1 6.9, 1.4 7.5, 2.2C8, 3.1 7.7, 4 6.9, 4.5C6.5, 4.7 6.1, 4.8 5.9, 5.2C5.6, 5.5 5.5, 6 5, 6C4.1, 6.1 4.1, 4.9 4.4, 4.4C4.6, 3.9 5.6, 2.9 5, 2.4C4.6, 2 4.4, 2.5 4.3, 2.9C4.2, 3.3 4.1, 3.7 3.6, 3.9C2.6, 4.4 2.1, 3.2 2.5, 2.3C2.9, 1.4 3.9, 1 4.9, 1M4.9, 6.5C6.5, 6.5 6.4, 8.8 4.9, 9C3.2, 9.1 3.2, 6.5 4.9, 6.5M4.9, 0C3.6, 0 2.2, 0.6 1.6, 1.8C0.9, 3.1 1.5, 5 3.2, 5C3.2, 5.4 3.3, 5.8 3.4, 6.1C1.8, 7.5 2.8, 10.3 5, 10C6.9, 9.8 7.7, 7.5 6.4, 6.2C6.6, 5.8 6.7, 5.7 7, 5.5C7.3, 5.3 7.7, 5.2 8, 4.9C8.6, 4.3 8.9, 3.4 8.7, 2.6C8.3, 0.9 6.5, 0 4.9, 0L4.9, 0z" tag="Element0" />
</svg>