<?xml version='1.0' encoding='UTF-8'?>
<svg x="0px" y="0px" viewBox="0 0 32 32" version="1.1" xmlns="http://www.w3.org/2000/svg" xmlns:xlink="http://www.w3.org/1999/xlink" xml:space="preserve" id="Layer_1" style="enable-background:new 0 0 32 32" tag="Element3">
  <style type="text/css" tag="Element1">
	.st0{fill:#FFFFFF;}
</style>
  <path d="M29, 32L3, 32C1.3, 32 0, 30.7 0, 29L0, 3C0, 1.3 1.3, 0 3, 0L29, 0C30.7, 0 32, 1.3 32, 3L32, 29C32, 30.7 30.7, 32 29, 32z" class="st0" tag="st00" />
  <path d="M29, 31L3, 31C1.9, 31 1, 30.1 1, 29L1, 3C1, 1.9 1.9, 1 3, 1L29, 1C30.1, 1 31, 1.9 31, 3L31, 29C31, 30.1 30.1, 31 29, 31z" tag="Element2" />
</svg>