<?xml version='1.0' encoding='UTF-8'?>
<svg x="0px" y="0px" viewBox="0 0 32 32" version="1.1" xmlns="http://www.w3.org/2000/svg" xmlns:xlink="http://www.w3.org/1999/xlink" xml:space="preserve" id="Layer_1" style="enable-background:new 0 0 32 32" tag="Element3">
  <style type="text/css" tag="Element1">
	.st0{fill:#707070;}
</style>
  <g tag="Element2">
    <path d="M0, 2L0, 30C0, 31.1 0.9, 32 2, 32L30, 32C31.1, 32 32, 31.1 32, 30L32, 2C32, 0.9 31.1, 0 30, 0L2, 0C0.9, 0 0, 0.9 0, 2zM30, 31L2, 31C1.4, 31 1, 30.6 1, 30L1, 2C1, 1.4 1.4, 1 2, 1L30, 1C30.6, 1 31, 1.4 31, 2L31, 30C31, 30.6 30.6, 31 30, 31z" class="st0" tag="st00" />
  </g>
</svg>