<?xml version='1.0' encoding='UTF-8'?>
<svg x="0px" y="0px" viewBox="0 0 32 32" version="1.1" xmlns="http://www.w3.org/2000/svg" xmlns:xlink="http://www.w3.org/1999/xlink" xml:space="preserve" id="Layer_1" style="enable-background:new 0 0 32 32" tag="Element3">
  <style type="text/css" tag="Element1">
	.st0{fill:#C9C9C9;}
	.st1{fill:#9B9B9B;}
	.st2{fill:#5E5E5E;}
</style>
  <path d="M22, 32L10, 32C4.5, 32 0, 27.5 0, 22L0, 10C0, 4.5 4.5, 0 10, 0L22, 0C27.5, 0 32, 4.5 32, 10L32, 22C32, 27.5 27.5, 32 22, 32z" class="st0" tag="st00" />
  <path d="M22, 30L10, 30C5.6, 30 2, 26.4 2, 22L2, 10C2, 5.6 5.6, 2 10, 2L22, 2C26.4, 2 30, 5.6 30, 10L30, 22C30, 26.4 26.4, 30 22, 30z" class="st1" tag="st10" />
  <path d="M22, 28L10, 28C6.7, 28 4, 25.3 4, 22L4, 10C4, 6.7 6.7, 4 10, 4L22, 4C25.3, 4 28, 6.7 28, 10L28, 22C28, 25.3 25.3, 28 22, 28z" class="st2" tag="st20" />
  <path d="M22, 26L10, 26C7.8, 26 6, 24.2 6, 22L6, 10C6, 7.8 7.8, 6 10, 6L22, 6C24.2, 6 26, 7.8 26, 10L26, 22C26, 24.2 24.2, 26 22, 26z" tag="Element2" />
</svg>