<?xml version='1.0' encoding='UTF-8'?>
<svg x="0px" y="0px" viewBox="0 0 30 1" version="1.1" xmlns="http://www.w3.org/2000/svg" xmlns:xlink="http://www.w3.org/1999/xlink" xml:space="preserve" id="Layer_1" style="enable-background:new 0 0 30 1" tag="Element12">
  <style type="text/css" tag="Element1">
	.st0{fill:#AFAFAF;}
</style>
  <g tag="Element2">
    <rect x="0" y="0" width="1" height="1" rx="0" ry="0" class="st0" tag="st00" />
  </g>
  <g tag="Element3">
    <rect x="3" y="0" width="1" height="1" rx="0" ry="0" class="st0" tag="st01" />
  </g>
  <g tag="Element4">
    <rect x="6" y="0" width="1" height="1" rx="0" ry="0" class="st0" tag="st02" />
  </g>
  <g tag="Element5">
    <rect x="9" y="0" width="1" height="1" rx="0" ry="0" class="st0" tag="st03" />
  </g>
  <g tag="Element6">
    <rect x="12" y="0" width="1" height="1" rx="0" ry="0" class="st0" tag="st04" />
  </g>
  <g tag="Element7">
    <rect x="15" y="0" width="1" height="1" rx="0" ry="0" class="st0" tag="st05" />
  </g>
  <g tag="Element8">
    <rect x="18" y="0" width="1" height="1" rx="0" ry="0" class="st0" tag="st06" />
  </g>
  <g tag="Element9">
    <rect x="21" y="0" width="1" height="1" rx="0" ry="0" class="st0" tag="st07" />
  </g>
  <g tag="Element10">
    <rect x="24" y="0" width="1" height="1" rx="0" ry="0" class="st0" tag="st08" />
  </g>
  <g tag="Element11">
    <rect x="27" y="0" width="1" height="1" rx="0" ry="0" class="st0" tag="st09" />
  </g>
</svg>