<?xml version='1.0' encoding='UTF-8'?>
<svg x="0px" y="0px" viewBox="0 0 10 10" version="1.1" xmlns="http://www.w3.org/2000/svg" xmlns:xlink="http://www.w3.org/1999/xlink" xml:space="preserve" id="Layer_1" style="enable-background:new 0 0 10 10" tag="Element3">
  <style type="text/css" tag="Element1">
	.st0{fill:#707070;}
</style>
  <g id="Inside_Border" tag="Element2">
    <path d="M6.5, 0C4.6, 0 3, 1.6 3, 3.5C3, 4.2 3.2, 4.9 3.6, 5.4L0, 9L1, 10L4.6, 6.4C5.1, 6.8 5.8, 7 6.5, 7C8.4, 7 10, 5.4 10, 3.5C10, 1.6 8.4, 0 6.5, 0zM6.5, 6C5.1, 6 4, 4.9 4, 3.5C4, 2.1 5.1, 1 6.5, 1C7.9, 1 9, 2.1 9, 3.5C9, 4.9 7.9, 6 6.5, 6z" class="st0" tag="st00" />
  </g>
</svg>