<?xml version='1.0' encoding='UTF-8'?>
<svg x="0px" y="0px" viewBox="0 0 182 182" version="1.1" xmlns="http://www.w3.org/2000/svg" xmlns:xlink="http://www.w3.org/1999/xlink" enable-background="new 0 0 182 182" xml:space="preserve" id="Layer_1" tag="Element11">
  <style type="text/css" tag="Element1">
	.st0{fill:#B0B0B0;}
	.st1{fill:#FFFFFF;}
</style>
  <path d="M106, 107L76, 107C75.4, 107 75, 106.6 75, 106L75, 76C75, 75.4 75.4, 75 76, 75L106, 75C106.6, 75 107, 75.4 107, 76L107, 106C107, 106.6 106.6, 107 106, 107z" fill="#B0B0B0" class="st0" tag="st00" />
  <path d="M107, 82L107, 81L101, 81L101, 75L100, 75L100, 81L82, 81L82, 75L81, 75L81, 81L75, 81L75, 82L81, 82L81, 100L75, 100L75, 101L81, 101L81, 107L82, 107L82, 101L100, 101L100, 107L101, 107L101, 101L107, 101L107, 100L101, 100L101, 82L107, 82zM100, 100L82, 100L82, 82L100, 82L100, 100z" fill="#FFFFFF" class="st1" tag="st10" />
  <rect x="81" y="81" width="20" height="20" rx="0" ry="0" tag="Element2" />
  <path d="M142, 107L112, 107C111.4, 107 111, 106.6 111, 106L111, 76C111, 75.4 111.4, 75 112, 75L142, 75C142.6, 75 143, 75.4 143, 76L143, 106C143, 106.6 142.6, 107 142, 107z" fill="#B0B0B0" class="st0" tag="st01" />
  <path d="M143, 82L143, 81L137, 81L137, 75L136, 75L136, 81L118, 81L118, 75L117, 75L117, 81L111, 81L111, 82L117, 82L117, 100L111, 100L111, 101L117, 101L117, 107L118, 107L118, 101L136, 101L136, 107L137, 107L137, 101L143, 101L143, 100L137, 100L137, 82L143, 82zM136, 100L118, 100L118, 82L136, 82L136, 100z" fill="#FFFFFF" class="st1" tag="st11" />
  <rect x="127" y="81" width="10" height="20" rx="0" ry="0" tag="Element3" />
  <path d="M106, 71L76, 71C75.4, 71 75, 70.6 75, 70L75, 40C75, 39.4 75.4, 39 76, 39L106, 39C106.6, 39 107, 39.4 107, 40L107, 70C107, 70.6 106.6, 71 106, 71z" fill="#B0B0B0" class="st0" tag="st02" />
  <path d="M107, 46L107, 45L101, 45L101, 39L100, 39L100, 45L82, 45L82, 39L81, 39L81, 45L75, 45L75, 46L81, 46L81, 64L75, 64L75, 65L81, 65L81, 71L82, 71L82, 65L100, 65L100, 71L101, 71L101, 65L107, 65L107, 64L101, 64L101, 46L107, 46zM100, 64L82, 64L82, 46L100, 46L100, 64z" fill="#FFFFFF" class="st1" tag="st12" />
  <rect x="86" y="40" width="10" height="20" rx="0" ry="0" transform="matrix(0, -1, 1, 0, 41, 141)" tag="Element4" />
  <path d="M106, 35L76, 35C75.4, 35 75, 34.6 75, 34L75, 4C75, 3.4 75.4, 3 76, 3L106, 3C106.6, 3 107, 3.4 107, 4L107, 34C107, 34.6 106.6, 35 106, 35z" fill="#B0B0B0" class="st0" tag="st03" />
  <path d="M107, 10L107, 9L101, 9L101, 3L100, 3L100, 9L82, 9L82, 3L81, 3L81, 9L75, 9L75, 10L81, 10L81, 28L75, 28L75, 29L81, 29L81, 35L82, 35L82, 29L100, 29L100, 35L101, 35L101, 29L107, 29L107, 28L101, 28L101, 10L107, 10zM100, 28L82, 28L82, 10L100, 10L100, 28z" fill="#FFFFFF" class="st1" tag="st13" />
  <rect x="87.5" y="-3.5" width="7" height="20" rx="0" ry="0" transform="matrix(0, -1, 1, 0, 84.5, 97.5)" tag="Element5" />
  <path d="M106, 143L76, 143C75.4, 143 75, 142.6 75, 142L75, 112C75, 111.4 75.4, 111 76, 111L106, 111C106.6, 111 107, 111.4 107, 112L107, 142C107, 142.6 106.6, 143 106, 143z" fill="#B0B0B0" class="st0" tag="st04" />
  <path d="M107, 118L107, 117L101, 117L101, 111L100, 111L100, 117L82, 117L82, 111L81, 111L81, 117L75, 117L75, 118L81, 118L81, 136L75, 136L75, 137L81, 137L81, 143L82, 143L82, 137L100, 137L100, 143L101, 143L101, 137L107, 137L107, 136L101, 136L101, 118L107, 118zM100, 136L82, 136L82, 118L100, 118L100, 136z" fill="#FFFFFF" class="st1" tag="st14" />
  <rect x="86" y="122" width="10" height="20" rx="0" ry="0" transform="matrix(0, 1, -1, 0, 223, 41)" tag="Element6" />
  <path d="M106, 179L76, 179C75.4, 179 75, 178.6 75, 178L75, 148C75, 147.4 75.4, 147 76, 147L106, 147C106.6, 147 107, 147.4 107, 148L107, 178C107, 178.6 106.6, 179 106, 179z" fill="#B0B0B0" class="st0" tag="st05" />
  <path d="M107, 154L107, 153L101, 153L101, 147L100, 147L100, 153L82, 153L82, 147L81, 147L81, 153L75, 153L75, 154L81, 154L81, 172L75, 172L75, 173L81, 173L81, 179L82, 179L82, 173L100, 173L100, 179L101, 179L101, 173L107, 173L107, 172L101, 172L101, 154L107, 154zM100, 172L82, 172L82, 154L100, 154L100, 172z" fill="#FFFFFF" class="st1" tag="st15" />
  <rect x="87.5" y="165.5" width="7" height="20" rx="0" ry="0" transform="matrix(0, 1, -1, 0, 266.5, 84.5)" tag="Element7" />
  <path d="M70, 107L40, 107C39.4, 107 39, 106.6 39, 106L39, 76C39, 75.4 39.4, 75 40, 75L70, 75C70.6, 75 71, 75.4 71, 76L71, 106C71, 106.6 70.6, 107 70, 107z" fill="#B0B0B0" class="st0" tag="st06" />
  <path d="M71, 82L71, 81L65, 81L65, 75L64, 75L64, 81L46, 81L46, 75L45, 75L45, 81L39, 81L39, 82L45, 82L45, 100L39, 100L39, 101L45, 101L45, 107L46, 107L46, 101L64, 101L64, 107L65, 107L65, 101L71, 101L71, 100L65, 100L65, 82L71, 82zM64, 100L46, 100L46, 82L64, 82L64, 100z" fill="#FFFFFF" class="st1" tag="st16" />
  <rect x="45" y="81" width="10" height="20" rx="0" ry="0" tag="Element8" />
  <path d="M178, 107L148, 107C147.4, 107 147, 106.6 147, 106L147, 76C147, 75.4 147.4, 75 148, 75L178, 75C178.6, 75 179, 75.4 179, 76L179, 106C179, 106.6 178.6, 107 178, 107z" fill="#B0B0B0" class="st0" tag="st07" />
  <path d="M179, 82L179, 81L173, 81L173, 75L172, 75L172, 81L154, 81L154, 75L153, 75L153, 81L147, 81L147, 82L153, 82L153, 100L147, 100L147, 101L153, 101L153, 107L154, 107L154, 101L172, 101L172, 107L173, 107L173, 101L179, 101L179, 100L173, 100L173, 82L179, 82zM172, 100L154, 100L154, 82L172, 82L172, 100z" fill="#FFFFFF" class="st1" tag="st17" />
  <rect x="172" y="81" width="7" height="20" rx="0" ry="0" tag="Element9" />
  <path d="M34, 107L4, 107C3.4, 107 3, 106.6 3, 106L3, 76C3, 75.4 3.4, 75 4, 75L34, 75C34.6, 75 35, 75.4 35, 76L35, 106C35, 106.6 34.6, 107 34, 107z" fill="#B0B0B0" class="st0" tag="st08" />
  <path d="M35, 82L35, 81L29, 81L29, 75L28, 75L28, 81L10, 81L10, 75L9, 75L9, 81L3, 81L3, 82L9, 82L9, 100L3, 100L3, 101L9, 101L9, 107L10, 107L10, 101L28, 101L28, 107L29, 107L29, 101L35, 101L35, 100L29, 100L29, 82L35, 82zM28, 100L10, 100L10, 82L28, 82L28, 100z" fill="#FFFFFF" class="st1" tag="st18" />
  <rect x="3" y="81" width="7" height="20" rx="0" ry="0" tag="Element10" />
</svg>