<?xml version='1.0' encoding='UTF-8'?>
<svg x="0px" y="0px" viewBox="0 0 28 20" version="1.1" xmlns="http://www.w3.org/2000/svg" xmlns:xlink="http://www.w3.org/1999/xlink" xml:space="preserve" id="Layer_1" style="enable-background:new 0 0 28 20" tag="Element3">
  <style type="text/css" tag="Element1">
	.st0{fill:#DDDDDD;}
</style>
  <path d="M11.4, 19L25, 19C26.5, 19 27.4, 17.5 26.8, 16.2L21.4, 4.5C20.4, 2.4 18.3, 1 16, 1L3.2, 1C1.8, 1 0.8, 2.5 1.4, 3.8L6.8, 16C7.6, 17.8 9.4, 19 11.4, 19z" class="st0" tag="st00" />
  <path d="M26.8, 16.2L21.4, 4.5C20.4, 2.4 18.3, 1 16, 1L3.2, 1C1.8, 1 0.8, 2.5 1.4, 3.8L6.8, 16C7.6, 17.8 9.4, 19 11.4, 19L25, 19C26.5, 19 27.4, 17.5 26.8, 16.2zM25, 18L11.4, 18C9.8, 18 8.4, 17.1 7.7, 15.6L2.3, 3.4C2, 2.8 2.6, 2 3.2, 2L15.9, 2C17.8, 2 19.6, 3.1 20.4, 4.9L25.8, 16.6C26.1, 17.2 25.7, 18 25, 18z" tag="Element2" />
</svg>