<?xml version='1.0' encoding='UTF-8'?>
<svg x="0px" y="0px" viewBox="0 0 15 10" version="1.1" xmlns="http://www.w3.org/2000/svg" xmlns:xlink="http://www.w3.org/1999/xlink" xml:space="preserve" id="Layer_1" style="enable-background:new 0 0 15 10" tag="Element2">
  <style type="text/css" tag="Element1">
	.st0{fill:#707070;}
</style>
  <path d="M14, 5.5C14, 6.3 13.3, 7 12.5, 7C11.7, 7 11, 6.3 11, 5.5C11, 4.7 11.7, 4 12.5, 4C13.3, 4 14, 4.7 14, 5.5zM7.5, 4C6.7, 4 6, 4.7 6, 5.5C6, 6.3 6.7, 7 7.5, 7C8.3, 7 9, 6.3 9, 5.5C9, 4.7 8.3, 4 7.5, 4zM2.5, 4C1.7, 4 1, 4.7 1, 5.5C1, 6.3 1.7, 7 2.5, 7C3.3, 7 4, 6.3 4, 5.5C4, 4.7 3.3, 4 2.5, 4z" class="st0" tag="st00" />
</svg>