<?xml version='1.0' encoding='UTF-8'?>
<svg x="0px" y="0px" viewBox="0 0 36 23" version="1.1" xmlns="http://www.w3.org/2000/svg" xmlns:xlink="http://www.w3.org/1999/xlink" xml:space="preserve" id="Layer_1" style="enable-background:new 0 0 36 23" tag="Element2">
  <style type="text/css" tag="Element1">
	.st0{fill:#FFFFFF;}
	.st1{fill:#A5A5A5;}
</style>
  <path d="M29.2, 15.2L24.6, 3.7C23.6, 1.5 21.4, 0 19, 0L17, 0C14.6, 0 12.4, 1.5 11.4, 3.7L6.8, 15.2C5.5, 18.3 4, 22 0, 22L0, 23L36, 23L36, 22C32, 22 30.5, 18.3 29.2, 15.2z" class="st0" tag="st00" />
  <path d="M29.2, 15.2L24.6, 3.7C23.6, 1.5 21.4, 0 19, 0L17, 0C14.6, 0 12.4, 1.5 11.4, 3.7L6.8, 15.2C5.5, 18.3 4, 22 0, 22L0, 23L1, 23C4.9, 22.4 6.5, 18.5 7.7, 15.6L12.4, 4.2C13.2, 2.2 15, 1 17, 1L19, 1C21, 1 22.8, 2.2 23.6, 4.2L28.3, 15.6C29.5, 18.5 31.1, 22.4 35, 23L36, 23L36, 22C32, 22 30.5, 18.3 29.2, 15.2z" class="st1" tag="st10" />
</svg>