<?xml version='1.0' encoding='UTF-8'?>
<svg x="0px" y="0px" viewBox="0 0 36 23" version="1.1" xmlns="http://www.w3.org/2000/svg" xmlns:xlink="http://www.w3.org/1999/xlink" xml:space="preserve" id="Layer_1" style="enable-background:new 0 0 36 23" tag="Element3">
  <style type="text/css" tag="Element1">
	.st0{fill:#FFFFFF;}
	.st1{fill:#A5A5A5;}
</style>
  <g tag="Element2">
    <path d="M29.2, 15.2L24.6, 3.7C23.6, 1.5 21.4, 0 19, 0L17, 0C14.6, 0 12.4, 1.5 11.4, 3.7L6.8, 15.2C5.5, 18.3 4, 22 0, 22L36, 22C32, 22 30.5, 18.3 29.2, 15.2z" class="st0" tag="st00" />
    <path d="M7.7, 15.6L12.4, 4.2C13.2, 2.2 15, 1 17, 1L19, 1C21, 1 22.8, 2.2 23.6, 4.2L28.3, 15.6C29.2, 17.8 30.3, 20.5 32.5, 22L36, 22C32, 22 30.5, 18.3 29.2, 15.2L24.6, 3.7C23.6, 1.5 21.4, 0 19, 0L17, 0C14.6, 0 12.4, 1.5 11.4, 3.7L6.8, 15.2C5.5, 18.3 4, 22 0, 22L3.5, 22C5.7, 20.5 6.8, 17.8 7.7, 15.6z" class="st1" tag="st10" />
  </g>
</svg>