<?xml version='1.0' encoding='UTF-8'?>
<svg x="0px" y="0px" viewBox="0 0 13 13" version="1.1" xmlns="http://www.w3.org/2000/svg" xmlns:xlink="http://www.w3.org/1999/xlink" xml:space="preserve" id="Layer_1" style="enable-background:new 0 0 13 13" tag="Element7">
  <style type="text/css" tag="Element1">
	.st0{fill:#5B5B5B;}
	.st1{fill:#707070;}
</style>
  <g tag="Element2">
    <path d="M12, 13L1, 13C0.4, 13 0, 12.6 0, 12L0, 1C0, 0.4 0.4, 0 1, 0L12, 0C12.6, 0 13, 0.4 13, 1L13, 12C13, 12.6 12.6, 13 12, 13z" class="st0" tag="st00" />
  </g>
  <g tag="Element4">
    <path d="M12, 1L12, 12L1, 12L1, 1L12, 1M12, 0L1, 0C0.4, 0 0, 0.4 0, 1L0, 12C0, 12.6 0.4, 13 1, 13L12, 13C12.6, 13 13, 12.6 13, 12L13, 1C13, 0.4 12.6, 0 12, 0L12, 0z" tag="Element3" />
  </g>
  <g id="Inside_Border" tag="Element5">
    <polygon points="10,3 11,4 5,10 2,7 3,6 5,8  " class="st1" tag="st10" />
  </g>
  <g id="Layer_2_1_" tag="Element6" />
</svg>